<svg width="512" height="480" viewBox="0 0 512 480" fill="none" xmlns="http://www.w3.org/2000/svg">
<path d="M288 0L0 288L176 464L464 176V0H288ZM368 128C361.671 128 355.484 126.123 350.222 122.607C344.959 119.091 340.858 114.093 338.436 108.246C336.014 102.399 335.38 95.9645 336.615 89.7571C337.85 83.5497 340.897 77.8479 345.373 73.3726C349.848 68.8973 355.55 65.8496 361.757 64.6149C367.965 63.3801 374.399 64.0138 380.246 66.4359C386.093 68.8579 391.091 72.9594 394.607 78.2218C398.123 83.4841 400 89.671 400 96C400 104.487 396.629 112.626 390.627 118.627C384.626 124.629 376.487 128 368 128Z" fill="#1AA090"/>
<path d="M480 48V192L216.9 455.1L242 480L512 208V48H480Z" fill="#1AA090"/>
</svg>
