<svg width="100" height="85" viewBox="0 0 100 85" fill="none" xmlns="http://www.w3.org/2000/svg">
<path d="M90.7245 26.3499L98.5395 18.5349L91.4695 11.4648L82.9295 19.9999C77.6795 16.8499 71.5595 14.9998 64.9995 14.9998C45.7045 14.9998 29.9995 30.6999 29.9995 49.9999C29.9995 69.2999 45.7045 85 64.9995 85C84.2945 85 99.9995 69.2999 99.9995 49.9999C99.9955 41.23 96.6834 32.7844 90.7245 26.3499ZM64.9995 75C51.2145 75 39.9995 63.7849 39.9995 49.9999C39.9995 36.2149 51.2145 24.9999 64.9995 24.9999C78.7845 24.9999 89.9995 36.2149 89.9995 49.9999C89.9995 63.7849 78.7845 75 64.9995 75Z" fill="#1AA090"/>
<path d="M60 35.0001H70V55.0001H60V35.0001ZM55 0H75V10H55V0ZM5 25H25V35.0001H5V25ZM5 65.0001H25V75.0001H5V65.0001ZM0 45.0001H19.95V55.0001H0V45.0001Z" fill="#1AA090"/>
</svg>
